<svg xmlns="http://www.w3.org/2000/svg" xmlns:xlink="http://www.w3.org/1999/xlink" width="40" zoomAndPan="magnify" viewBox="0 0 30 30.000001" height="40" preserveAspectRatio="xMidYMid meet" version="1.0"><defs><clipPath id="327599354c"><path d="M 0.484375 4.082031 L 29.515625 4.082031 L 29.515625 25 L 0.484375 25 Z M 0.484375 4.082031 " clip-rule="nonzero"/></clipPath></defs><g clip-path="url(#327599354c)"><path fill="#ffffff" d="M 29.152344 4.082031 L 2.960938 4.082031 C 2.769531 4.082031 2.613281 4.234375 2.613281 4.425781 L 2.613281 5.703125 L 1.277344 5.703125 C 0.851562 5.703125 0.5 6.050781 0.5 6.476562 L 0.5 24.167969 C 0.5 24.597656 0.851562 24.945312 1.277344 24.945312 L 9.773438 24.945312 C 10.199219 24.945312 10.550781 24.597656 10.550781 24.167969 L 10.550781 20.8125 L 13.195312 20.8125 L 13.195312 22.171875 L 12.792969 22.171875 C 11.933594 22.171875 11.234375 22.871094 11.234375 23.730469 L 11.234375 24.597656 C 11.234375 24.789062 11.390625 24.945312 11.582031 24.945312 L 20.53125 24.945312 C 20.722656 24.945312 20.878906 24.789062 20.878906 24.597656 L 20.878906 23.730469 C 20.878906 22.871094 20.179688 22.171875 19.320312 22.171875 L 18.917969 22.171875 L 18.917969 20.8125 L 29.152344 20.8125 C 29.34375 20.8125 29.5 20.660156 29.5 20.46875 L 29.5 4.425781 C 29.5 4.234375 29.34375 4.082031 29.152344 4.082031 Z M 3.308594 4.773438 L 28.804688 4.773438 L 28.804688 16.921875 L 10.550781 16.921875 L 10.550781 6.476562 C 10.550781 6.050781 10.199219 5.703125 9.773438 5.703125 L 3.308594 5.703125 Z M 9.855469 24.167969 C 9.855469 24.214844 9.816406 24.253906 9.773438 24.253906 L 1.277344 24.253906 C 1.234375 24.253906 1.195312 24.214844 1.195312 24.167969 L 1.195312 6.476562 C 1.195312 6.433594 1.234375 6.394531 1.277344 6.394531 L 9.773438 6.394531 C 9.816406 6.394531 9.855469 6.433594 9.855469 6.476562 Z M 20.183594 23.730469 L 20.183594 24.253906 L 11.925781 24.253906 L 11.925781 23.730469 C 11.925781 23.25 12.316406 22.863281 12.792969 22.863281 L 19.320312 22.863281 C 19.796875 22.863281 20.183594 23.25 20.183594 23.730469 Z M 18.222656 22.171875 L 13.886719 22.171875 L 13.886719 20.8125 L 18.222656 20.8125 Z M 10.550781 20.121094 L 10.550781 17.617188 L 28.804688 17.617188 L 28.804688 20.121094 Z M 16.054688 17.890625 C 15.515625 17.890625 15.078125 18.328125 15.078125 18.867188 C 15.078125 19.410156 15.515625 19.847656 16.054688 19.847656 C 16.59375 19.847656 17.035156 19.410156 17.035156 18.867188 C 17.035156 18.328125 16.59375 17.890625 16.054688 17.890625 Z M 16.054688 19.152344 C 15.898438 19.152344 15.769531 19.027344 15.769531 18.867188 C 15.769531 18.710938 15.898438 18.582031 16.054688 18.582031 C 16.214844 18.582031 16.339844 18.710938 16.339844 18.867188 C 16.339844 19.027344 16.214844 19.152344 16.054688 19.152344 Z M 1.792969 21.828125 L 9.261719 21.828125 L 9.261719 22.523438 L 1.792969 22.523438 Z M 1.792969 19.945312 L 9.261719 19.945312 L 9.261719 20.636719 L 1.792969 20.636719 Z M 5.523438 10.132812 C 6.082031 10.132812 6.53125 9.679688 6.53125 9.125 C 6.53125 8.570312 6.082031 8.117188 5.523438 8.117188 C 4.96875 8.117188 4.519531 8.570312 4.519531 9.125 C 4.519531 9.679688 4.96875 10.132812 5.523438 10.132812 Z M 5.523438 8.8125 C 5.699219 8.8125 5.839844 8.953125 5.839844 9.125 C 5.839844 9.296875 5.699219 9.4375 5.523438 9.4375 C 5.351562 9.4375 5.210938 9.296875 5.210938 9.125 C 5.210938 8.953125 5.351562 8.8125 5.523438 8.8125 Z M 27.761719 21.476562 L 26.191406 21.476562 C 25.234375 21.476562 24.457031 22.253906 24.457031 23.210938 L 24.457031 24.132812 C 24.457031 24.582031 24.820312 24.945312 25.269531 24.945312 L 28.683594 24.945312 C 29.132812 24.945312 29.5 24.582031 29.5 24.132812 L 29.5 23.210938 C 29.5 22.253906 28.71875 21.476562 27.761719 21.476562 Z M 28.804688 24.132812 C 28.804688 24.199219 28.75 24.253906 28.683594 24.253906 L 25.269531 24.253906 C 25.203125 24.253906 25.152344 24.199219 25.152344 24.132812 L 25.152344 23.210938 C 25.152344 22.636719 25.617188 22.167969 26.191406 22.167969 L 27.761719 22.167969 C 28.335938 22.167969 28.804688 22.636719 28.804688 23.210938 Z M 28.804688 24.132812 " fill-opacity="1" fill-rule="nonzero"/></g></svg>