<svg xmlns="http://www.w3.org/2000/svg" xmlns:xlink="http://www.w3.org/1999/xlink" width="40" zoomAndPan="magnify" viewBox="0 0 30 30.000001" height="40" preserveAspectRatio="xMidYMid meet" version="1.0"><defs><clipPath id="e8c4e6607b"><path d="M 0.609375 0 L 29.515625 0 L 29.515625 29.03125 L 0.609375 29.03125 Z M 0.609375 0 " clip-rule="nonzero"/></clipPath></defs><g clip-path="url(#e8c4e6607b)"><path fill="#ffffff" d="M 14.882812 22.496094 L 14.882812 25.507812 C 14.882812 25.863281 14.59375 26.152344 14.242188 26.152344 L 1.253906 26.152344 C 0.898438 26.152344 0.609375 25.863281 0.609375 25.507812 L 0.609375 12.066406 C 0.609375 11.710938 0.898438 11.425781 1.253906 11.425781 L 14.242188 11.425781 C 14.59375 11.425781 14.882812 11.710938 14.882812 12.066406 L 14.882812 14.648438 L 15.398438 13.6875 C 16.144531 12.292969 17.601562 11.425781 19.183594 11.425781 L 25.085938 11.425781 C 27.457031 11.425781 29.382812 13.347656 29.382812 15.722656 L 29.382812 28.382812 C 29.382812 28.738281 29.09375 29.027344 28.738281 29.027344 C 28.386719 29.027344 28.097656 28.738281 28.097656 28.382812 L 28.097656 15.722656 C 28.097656 14.058594 26.75 12.707031 25.085938 12.707031 L 19.183594 12.707031 C 18.074219 12.707031 17.054688 13.316406 16.527344 14.296875 L 14.472656 18.128906 C 14.359375 18.335938 14.140625 18.46875 13.90625 18.46875 L 8.085938 18.46875 C 7.464844 18.46875 6.964844 18.96875 6.964844 19.589844 L 6.964844 20.09375 C 6.964844 20.710938 7.464844 21.214844 8.085938 21.214844 L 15.328125 21.214844 C 15.917969 21.214844 16.460938 20.898438 16.75 20.390625 L 19.132812 16.226562 C 19.3125 15.917969 19.703125 15.8125 20.011719 15.988281 C 20.316406 16.164062 20.425781 16.554688 20.25 16.863281 L 18.441406 20.023438 L 18.441406 28.382812 C 18.441406 28.738281 18.152344 29.027344 17.796875 29.027344 C 17.441406 29.027344 17.15625 28.738281 17.15625 28.382812 L 17.15625 21.855469 C 16.644531 22.265625 16.003906 22.496094 15.328125 22.496094 Z M 5.453125 12.707031 L 1.894531 12.707031 L 1.894531 24.867188 L 13.597656 24.867188 L 13.597656 22.496094 L 8.085938 22.496094 C 6.757812 22.496094 5.679688 21.421875 5.679688 20.09375 L 5.679688 19.589844 C 5.679688 18.261719 6.757812 17.183594 8.085938 17.183594 L 13.523438 17.183594 L 13.597656 17.039062 L 13.597656 12.707031 L 10.042969 12.707031 L 10.042969 15.394531 C 10.042969 15.75 9.753906 16.035156 9.398438 16.035156 L 6.09375 16.035156 C 5.738281 16.035156 5.453125 15.75 5.453125 15.394531 Z M 8.757812 12.707031 L 6.734375 12.707031 L 6.734375 14.753906 L 8.757812 14.753906 Z M 22 0.00390625 C 24.820312 0.00390625 27.109375 2.296875 27.109375 5.117188 C 27.109375 7.9375 24.820312 10.226562 22 10.226562 C 19.179688 10.226562 16.890625 7.9375 16.890625 5.117188 C 16.890625 2.296875 19.179688 0.00390625 22 0.00390625 Z M 22 1.289062 C 19.886719 1.289062 18.171875 3.003906 18.171875 5.117188 C 18.171875 7.230469 19.886719 8.945312 22 8.945312 C 24.113281 8.945312 25.828125 7.230469 25.828125 5.117188 C 25.828125 3.003906 24.113281 1.289062 22 1.289062 Z M 22 1.289062 " fill-opacity="1" fill-rule="evenodd"/></g></svg>