<svg xmlns="http://www.w3.org/2000/svg" xmlns:xlink="http://www.w3.org/1999/xlink" width="40" zoomAndPan="magnify" viewBox="0 0 30 30.000001" height="40" preserveAspectRatio="xMidYMid meet" version="1.0"><defs><clipPath id="2a9c289568"><path d="M 0.484375 1.46875 L 29.515625 1.46875 L 29.515625 27.597656 L 0.484375 27.597656 Z M 0.484375 1.46875 " clip-rule="nonzero"/></clipPath></defs><g clip-path="url(#2a9c289568)"><path fill="#ffffff" d="M 0.492188 17.460938 C 0.511719 17.410156 0.527344 17.359375 0.539062 17.308594 C 0.585938 16.523438 0.789062 15.773438 1.09375 15.050781 C 1.382812 14.378906 1.753906 13.761719 2.210938 13.191406 C 2.648438 12.65625 3.140625 12.175781 3.683594 11.75 C 4.753906 10.898438 5.949219 10.296875 7.25 9.902344 C 8.007812 9.667969 8.789062 9.503906 9.585938 9.46875 C 9.609375 9.464844 9.628906 9.464844 9.652344 9.460938 C 9.953125 9.398438 9.929688 9.429688 9.960938 9.125 C 10.015625 8.582031 10.132812 8.050781 10.316406 7.53125 C 10.511719 6.960938 10.769531 6.417969 11.089844 5.90625 C 11.519531 5.210938 12.042969 4.59375 12.652344 4.054688 C 13.046875 3.703125 13.46875 3.382812 13.910156 3.09375 C 14.691406 2.59375 15.527344 2.210938 16.414062 1.945312 C 16.972656 1.773438 17.542969 1.652344 18.121094 1.582031 C 18.65625 1.519531 19.191406 1.46875 19.726562 1.484375 C 20.53125 1.503906 21.320312 1.609375 22.101562 1.792969 C 23.066406 2.019531 23.988281 2.371094 24.859375 2.847656 C 25.546875 3.222656 26.183594 3.675781 26.769531 4.195312 C 27.308594 4.675781 27.78125 5.210938 28.1875 5.808594 C 28.589844 6.390625 28.902344 7.023438 29.121094 7.695312 C 29.253906 8.109375 29.335938 8.53125 29.4375 8.953125 C 29.46875 9.085938 29.492188 9.21875 29.503906 9.355469 L 29.503906 10.546875 C 29.5 10.582031 29.492188 10.621094 29.480469 10.660156 C 29.460938 10.707031 29.453125 10.761719 29.449219 10.8125 C 29.363281 11.59375 29.164062 12.339844 28.84375 13.058594 C 28.570312 13.671875 28.230469 14.246094 27.816406 14.773438 C 27.699219 14.921875 27.589844 15.078125 27.453125 15.207031 C 27.304688 15.351562 27.265625 15.527344 27.238281 15.714844 C 27.105469 16.664062 27.339844 17.523438 27.90625 18.292969 C 28.011719 18.4375 28.140625 18.5625 28.242188 18.710938 C 28.308594 18.804688 28.347656 18.90625 28.363281 19.019531 C 28.390625 19.324219 28.132812 19.605469 27.8125 19.605469 C 27.519531 19.605469 27.230469 19.585938 26.941406 19.546875 C 26.386719 19.472656 25.855469 19.324219 25.34375 19.101562 C 24.710938 18.824219 24.132812 18.457031 23.617188 17.992188 C 23.566406 17.949219 23.515625 17.910156 23.460938 17.863281 C 22.367188 18.230469 21.234375 18.394531 20.078125 18.472656 C 20.050781 18.65625 20.019531 18.820312 20.003906 18.988281 C 19.949219 19.554688 19.789062 20.09375 19.585938 20.621094 C 19.304688 21.355469 18.921875 22.035156 18.445312 22.65625 C 17.8125 23.496094 17.042969 24.183594 16.164062 24.75 C 15.0625 25.464844 13.871094 25.957031 12.578125 26.191406 C 12.152344 26.265625 11.722656 26.328125 11.292969 26.363281 C 10.878906 26.402344 10.464844 26.414062 10.050781 26.398438 C 9.347656 26.371094 8.644531 26.3125 7.953125 26.15625 C 7.476562 26.046875 7.003906 25.933594 6.527344 25.820312 C 6.253906 26.027344 5.980469 26.261719 5.683594 26.460938 C 4.851562 27.042969 3.925781 27.386719 2.914062 27.492188 C 2.6875 27.515625 2.464844 27.535156 2.238281 27.542969 C 1.988281 27.554688 1.800781 27.441406 1.6875 27.222656 C 1.578125 27.003906 1.617188 26.804688 1.769531 26.617188 C 1.917969 26.429688 2.066406 26.253906 2.203125 26.058594 C 2.53125 25.589844 2.707031 25.0625 2.773438 24.488281 C 2.816406 24.136719 2.773438 23.796875 2.71875 23.453125 C 2.703125 23.359375 2.660156 23.277344 2.597656 23.207031 C 2.144531 22.710938 1.757812 22.164062 1.4375 21.574219 C 1.027344 20.796875 0.722656 19.980469 0.601562 19.105469 C 0.570312 18.894531 0.527344 18.6875 0.492188 18.480469 Z M 3.4375 26.207031 L 3.476562 26.253906 C 3.757812 26.148438 4.042969 26.058594 4.316406 25.9375 C 4.847656 25.703125 5.308594 25.367188 5.730469 24.964844 C 6.207031 24.507812 6.257812 24.5 6.882812 24.710938 C 7.90625 25.054688 8.964844 25.203125 10.039062 25.269531 C 10.710938 25.3125 11.378906 25.257812 12.039062 25.148438 C 13.007812 24.992188 13.9375 24.695312 14.808594 24.234375 C 16.21875 23.488281 17.359375 22.472656 18.136719 21.0625 C 18.636719 20.152344 18.898438 19.183594 18.957031 18.15625 C 18.980469 17.65625 18.941406 17.160156 18.835938 16.667969 C 18.753906 16.292969 18.648438 15.921875 18.515625 15.5625 C 18.226562 14.785156 17.789062 14.101562 17.242188 13.472656 C 16.613281 12.753906 15.875 12.179688 15.046875 11.714844 C 14.277344 11.289062 13.460938 10.980469 12.601562 10.789062 C 11.996094 10.652344 11.382812 10.574219 10.757812 10.558594 C 10.410156 10.546875 10.0625 10.578125 9.714844 10.589844 C 9.121094 10.613281 8.539062 10.71875 7.964844 10.867188 C 7.183594 11.0625 6.441406 11.355469 5.738281 11.738281 C 4.628906 12.34375 3.675781 13.121094 2.925781 14.144531 C 2.222656 15.105469 1.785156 16.164062 1.664062 17.359375 C 1.59375 18.035156 1.65625 18.691406 1.796875 19.347656 C 1.953125 20.050781 2.230469 20.707031 2.597656 21.328125 C 2.875 21.789062 3.222656 22.199219 3.574219 22.609375 C 3.660156 22.707031 3.726562 22.820312 3.765625 22.945312 C 3.953125 23.597656 3.984375 24.261719 3.863281 24.929688 C 3.785156 25.375 3.640625 25.800781 3.4375 26.207031 Z M 26.5625 18.3125 C 26.542969 18.253906 26.53125 18.222656 26.519531 18.191406 C 26.429688 17.953125 26.324219 17.71875 26.25 17.476562 C 26.109375 17.007812 26.035156 16.519531 26.066406 16.03125 C 26.089844 15.683594 26.164062 15.34375 26.226562 15 C 26.25 14.910156 26.292969 14.828125 26.355469 14.753906 C 26.457031 14.617188 26.574219 14.496094 26.6875 14.367188 C 27.113281 13.882812 27.464844 13.347656 27.734375 12.761719 C 27.996094 12.195312 28.179688 11.605469 28.28125 10.992188 C 28.386719 10.375 28.394531 9.753906 28.304688 9.136719 C 28.21875 8.527344 28.039062 7.945312 27.777344 7.390625 C 27.5 6.796875 27.144531 6.253906 26.714844 5.761719 C 26.121094 5.078125 25.441406 4.503906 24.664062 4.039062 C 24.09375 3.691406 23.488281 3.40625 22.855469 3.183594 C 22.023438 2.902344 21.171875 2.722656 20.296875 2.652344 C 19.503906 2.585938 18.714844 2.617188 17.929688 2.75 C 16.9375 2.90625 15.996094 3.222656 15.109375 3.695312 C 14.378906 4.082031 13.71875 4.5625 13.132812 5.144531 C 12.542969 5.726562 12.070312 6.390625 11.703125 7.132812 C 11.457031 7.636719 11.292969 8.160156 11.160156 8.699219 C 11.105469 8.921875 11.097656 9.160156 11.070312 9.410156 C 11.183594 9.429688 11.273438 9.453125 11.363281 9.464844 C 11.6875 9.503906 12.019531 9.53125 12.34375 9.585938 C 13.277344 9.738281 14.167969 10.019531 15.019531 10.433594 C 15.191406 10.515625 15.371094 10.554688 15.5625 10.550781 C 18.433594 10.546875 21.304688 10.546875 24.175781 10.550781 C 24.296875 10.554688 24.417969 10.5625 24.539062 10.582031 C 24.765625 10.617188 24.964844 10.851562 24.964844 11.117188 C 24.964844 11.390625 24.753906 11.617188 24.542969 11.648438 C 24.421875 11.667969 24.300781 11.679688 24.179688 11.683594 C 21.902344 11.683594 19.625 11.683594 17.351562 11.683594 C 17.253906 11.683594 17.15625 11.683594 17.011719 11.6875 C 17.105469 11.769531 17.15625 11.808594 17.203125 11.855469 C 17.53125 12.175781 17.871094 12.492188 18.179688 12.835938 C 18.726562 13.453125 19.148438 14.15625 19.472656 14.917969 C 19.726562 15.503906 19.917969 16.113281 19.992188 16.753906 C 20.007812 16.902344 20.027344 17.050781 20.050781 17.199219 C 20.066406 17.316406 20.105469 17.34375 20.222656 17.332031 C 20.324219 17.320312 20.429688 17.308594 20.53125 17.292969 C 21.015625 17.222656 21.503906 17.175781 21.980469 17.078125 C 22.449219 16.980469 22.902344 16.832031 23.363281 16.699219 C 23.628906 16.621094 23.855469 16.648438 24.066406 16.851562 C 24.3125 17.085938 24.570312 17.304688 24.839844 17.511719 C 25.34375 17.898438 25.917969 18.144531 26.5625 18.3125 Z M 26.5625 18.3125 " fill-opacity="1" fill-rule="nonzero"/></g><path fill="#ffffff" d="M 20.816406 8.28125 C 19.691406 8.28125 18.570312 8.28125 17.445312 8.277344 C 17.324219 8.28125 17.203125 8.265625 17.085938 8.230469 C 16.96875 8.199219 16.875 8.132812 16.800781 8.035156 C 16.730469 7.9375 16.695312 7.824219 16.703125 7.703125 C 16.703125 7.445312 16.832031 7.273438 17.078125 7.199219 C 17.179688 7.167969 17.28125 7.152344 17.382812 7.152344 C 19.683594 7.148438 21.988281 7.148438 24.289062 7.148438 C 24.484375 7.148438 24.664062 7.183594 24.804688 7.332031 C 25.089844 7.628906 24.988281 8.09375 24.601562 8.230469 C 24.484375 8.265625 24.363281 8.28125 24.242188 8.28125 C 23.097656 8.28125 21.957031 8.28125 20.816406 8.28125 Z M 20.816406 8.28125 " fill-opacity="1" fill-rule="nonzero"/><path fill="#ffffff" d="M 15.5625 7.722656 C 15.527344 8.082031 15.3125 8.269531 14.996094 8.269531 C 14.679688 8.269531 14.445312 8.082031 14.441406 7.71875 C 14.4375 7.351562 14.691406 7.148438 15.015625 7.15625 C 15.34375 7.167969 15.539062 7.371094 15.5625 7.722656 Z M 15.5625 7.722656 " fill-opacity="1" fill-rule="nonzero"/><path fill="#ffffff" d="M 7.722656 18.3125 C 7.722656 18.558594 7.636719 18.765625 7.464844 18.941406 C 7.289062 19.113281 7.078125 19.203125 6.832031 19.203125 C 6.585938 19.203125 6.378906 19.113281 6.203125 18.941406 C 6.03125 18.765625 5.941406 18.558594 5.941406 18.3125 C 5.941406 18.066406 6.03125 17.855469 6.203125 17.679688 C 6.378906 17.507812 6.585938 17.421875 6.832031 17.421875 C 7.078125 17.421875 7.289062 17.507812 7.464844 17.679688 C 7.636719 17.855469 7.722656 18.066406 7.722656 18.3125 Z M 7.722656 18.3125 " fill-opacity="1" fill-rule="nonzero"/><path fill="#ffffff" d="M 11.433594 18.3125 C 11.433594 18.558594 11.34375 18.765625 11.171875 18.941406 C 10.996094 19.113281 10.789062 19.203125 10.542969 19.203125 C 10.296875 19.203125 10.085938 19.113281 9.910156 18.941406 C 9.738281 18.765625 9.652344 18.558594 9.652344 18.3125 C 9.652344 18.066406 9.738281 17.855469 9.910156 17.679688 C 10.085938 17.507812 10.296875 17.421875 10.542969 17.421875 C 10.789062 17.421875 10.996094 17.507812 11.171875 17.679688 C 11.34375 17.855469 11.433594 18.066406 11.433594 18.3125 Z M 11.433594 18.3125 " fill-opacity="1" fill-rule="nonzero"/><path fill="#ffffff" d="M 15 18.3125 C 15 18.558594 14.914062 18.765625 14.738281 18.941406 C 14.566406 19.113281 14.355469 19.203125 14.109375 19.203125 C 13.863281 19.203125 13.652344 19.113281 13.480469 18.941406 C 13.304688 18.765625 13.21875 18.558594 13.21875 18.3125 C 13.21875 18.066406 13.304688 17.855469 13.480469 17.679688 C 13.652344 17.507812 13.863281 17.421875 14.109375 17.421875 C 14.355469 17.421875 14.566406 17.507812 14.738281 17.679688 C 14.914062 17.855469 15 18.066406 15 18.3125 Z M 15 18.3125 " fill-opacity="1" fill-rule="nonzero"/></svg>