<svg xmlns="http://www.w3.org/2000/svg" xmlns:xlink="http://www.w3.org/1999/xlink" width="40" zoomAndPan="magnify" viewBox="0 0 30 30.000001" height="40" preserveAspectRatio="xMidYMid meet" version="1.0"><defs><clipPath id="1e45b288c7"><path d="M 0.484375 0.597656 L 29.515625 0.597656 L 29.515625 28.179688 L 0.484375 28.179688 Z M 0.484375 0.597656 " clip-rule="nonzero"/></clipPath></defs><g clip-path="url(#1e45b288c7)"><path fill="#ffffff" d="M 15.605469 0.601562 C 9.230469 0.601562 3.726562 4.878906 2.140625 11.023438 L 1.339844 11.023438 C 1.03125 11.023438 0.753906 11.183594 0.601562 11.449219 C 0.445312 11.714844 0.445312 12.035156 0.597656 12.308594 L 1.757812 14.316406 C 1.90625 14.578125 2.175781 14.738281 2.480469 14.742188 C 2.484375 14.742188 2.488281 14.742188 2.496094 14.742188 C 2.796875 14.742188 3.078125 14.585938 3.234375 14.328125 L 4.402344 12.304688 C 4.554688 12.035156 4.554688 11.714844 4.398438 11.449219 C 4.246094 11.183594 3.96875 11.023438 3.660156 11.023438 L 3.109375 11.023438 C 4.667969 5.417969 9.738281 1.535156 15.605469 1.535156 C 22.761719 1.535156 28.585938 7.359375 28.585938 14.515625 C 28.585938 21.671875 22.761719 27.496094 15.605469 27.496094 C 9.507812 27.496094 4.304688 23.351562 2.949219 17.417969 C 2.890625 17.167969 2.640625 17.007812 2.390625 17.070312 C 2.140625 17.125 1.980469 17.375 2.039062 17.625 C 3.492188 23.988281 9.070312 28.429688 15.605469 28.429688 C 23.277344 28.429688 29.515625 22.1875 29.515625 14.515625 C 29.515625 6.84375 23.277344 0.601562 15.605469 0.601562 Z M 2.5 13.738281 L 1.472656 11.957031 L 3.527344 11.957031 Z M 5.609375 13.832031 L 7.730469 14.679688 L 7.777344 19.269531 C 7.777344 19.707031 8.054688 20.097656 8.464844 20.242188 L 15.316406 22.675781 L 15.515625 22.796875 L 15.582031 22.757812 L 15.667969 22.800781 L 15.851562 22.675781 L 22.703125 20.246094 C 23.113281 20.089844 23.390625 19.699219 23.390625 19.28125 L 23.429688 14.703125 L 25.59375 13.839844 C 25.769531 13.773438 25.910156 13.632812 25.976562 13.453125 C 26.046875 13.257812 26.027344 13.046875 25.910156 12.855469 L 23.464844 9.164062 C 23.398438 9 23.261719 8.867188 23.101562 8.824219 L 16.027344 6.367188 C 15.78125 6.289062 15.523438 6.289062 15.269531 6.371094 L 8.011719 8.929688 L 7.902344 8.929688 L 5.3125 12.84375 C 5.191406 13.015625 5.160156 13.234375 5.226562 13.433594 C 5.289062 13.628906 5.445312 13.78125 5.609375 13.832031 Z M 8.773438 19.363281 C 8.730469 19.347656 8.707031 19.3125 8.707031 19.265625 L 8.664062 15.058594 L 12.773438 16.707031 C 12.867188 16.738281 12.964844 16.742188 13.058594 16.734375 C 13.097656 16.730469 13.140625 16.726562 13.183594 16.714844 C 13.207031 16.707031 13.230469 16.695312 13.253906 16.683594 C 13.296875 16.667969 13.335938 16.648438 13.371094 16.621094 C 13.390625 16.609375 13.410156 16.597656 13.425781 16.582031 C 13.484375 16.539062 13.535156 16.488281 13.578125 16.421875 L 15.09375 13.925781 L 15.09375 21.605469 Z M 22.457031 19.273438 C 22.457031 19.316406 22.421875 19.355469 22.382812 19.371094 L 16.070312 21.613281 L 16.070312 13.867188 L 17.628906 16.4375 C 17.644531 16.460938 17.667969 16.476562 17.683594 16.496094 C 17.707031 16.523438 17.726562 16.550781 17.753906 16.574219 C 17.789062 16.605469 17.824219 16.628906 17.863281 16.652344 C 17.871094 16.660156 17.882812 16.664062 17.890625 16.667969 C 18.0625 16.757812 18.261719 16.785156 18.441406 16.707031 L 22.496094 15.082031 Z M 18.308594 15.75 L 16.296875 12.4375 L 22.886719 9.976562 L 24.949219 13.09375 Z M 15.570312 7.253906 C 15.625 7.234375 15.675781 7.234375 15.726562 7.25 L 21.832031 9.371094 L 15.597656 11.695312 L 15.550781 11.683594 L 13.515625 10.917969 L 9.472656 9.398438 Z M 8.332031 9.972656 L 14.90625 12.4375 L 12.898438 15.742188 L 6.265625 13.089844 Z M 8.332031 9.972656 " fill-opacity="1" fill-rule="nonzero"/></g></svg>