<svg xmlns="http://www.w3.org/2000/svg" xmlns:xlink="http://www.w3.org/1999/xlink" width="40" zoomAndPan="magnify" viewBox="0 0 30 30.000001" height="40" preserveAspectRatio="xMidYMid meet" version="1.0"><defs><clipPath id="81122eb7d3"><path d="M 0.484375 4.882812 L 29.515625 4.882812 L 29.515625 24 L 0.484375 24 Z M 0.484375 4.882812 " clip-rule="nonzero"/></clipPath></defs><g clip-path="url(#81122eb7d3)"><path stroke-linecap="butt" transform="matrix(0.00292058, 0, 0, 0.00292058, -3.606345, -3.852943)" fill-opacity="1" fill="#ffffff" fill-rule="evenodd" stroke-linejoin="round" d="M 2723.431843 3765.510229 C 2447.908674 3959.44644 2232.572604 4230.957137 2112.198404 4549.280022 C 2110.860913 4551.955004 2108.185931 4554.629986 2106.848439 4557.304968 C 2010.549079 4739.20376 1884.824914 5247.450383 1836.675234 5619.272913 C 1836.675234 5619.272913 1538.414716 7901.032753 1538.414716 7901.032753 C 1403.328113 8841.289007 2377.021644 9584.934066 3263.778253 9380.297926 C 3640.950747 9294.698494 4002.073348 9039.237692 4250.846695 8551.053435 C 4411.345629 8235.405532 4549.107214 7883.645369 4681.518834 7538.572662 C 4945.004583 7772.633607 5291.414782 7863.583002 5609.737667 7772.633607 C 5874.560908 7696.396613 6123.334255 7495.772946 6289.183153 7134.650345 C 6360.070182 7133.312854 6464.394489 7131.975363 6533.944027 7130.637872 C 6750.617587 7498.447928 7062.253017 7716.45898 7381.913393 7753.908731 C 7637.374196 7783.333535 7904.872419 7699.071595 8138.933364 7471.698106 C 8303.444771 7914.407665 8421.143989 8302.280088 8656.542425 8719.577315 C 9000.277641 9329.473263 9674.373163 9515.384528 10258.85678 9365.585523 C 10846.015379 9214.449027 11338.212109 8728.939753 11315.47476 8006.694551 C 11310.124795 7856.895547 11128.226004 6437.817475 11013.201768 5660.735137 C 10977.089508 5347.762217 10904.864988 5041.476752 10839.327923 4749.903689 C 10837.990432 4743.216233 10835.31545 4737.866269 10833.977959 4732.516304 C 10736.341107 4321.906532 10484.892778 3967.471387 10142.495053 3734.747933 C 10139.82007 3619.723697 10133.132615 3488.649568 10110.395266 3378.975297 C 10086.320426 3267.963534 10044.858201 3177.014139 9967.283717 3110.139583 C 9892.384214 3047.277501 9781.372452 3003.140294 9599.47366 3001.802803 L 8415.794024 3007.152767 C 8177.720606 3008.490258 8080.083755 3128.864459 8013.209199 3267.963534 C 7970.409483 3357.575439 7966.39701 3449.862326 7958.372063 3540.811722 L 4886.154974 3554.186633 C 4874.117554 3463.237237 4872.780063 3361.587912 4825.967874 3265.288552 C 4760.43081 3126.189476 4661.456467 2996.452838 4423.383049 2995.115347 C 4423.383049 2995.115347 3261.103271 2993.777856 3238.365922 2993.777856 C 3049.779675 2992.440365 2936.09293 3052.627465 2865.205901 3127.526967 C 2791.64389 3203.763961 2760.881594 3300.063321 2748.844174 3382.98777 C 2747.506683 3387.000244 2747.506683 3391.012717 2747.506683 3393.687699 Z M 1879.47495 7224.26225 L 1785.850572 7934.470031 C 1785.850572 7935.807522 1785.850572 7935.807522 1785.850572 7937.145014 C 1674.83881 8706.202404 2481.345951 9304.060932 3207.603626 9136.874543 C 3523.251529 9064.650023 3820.174557 8845.30148 4028.82317 8438.704181 C 4169.259737 8161.843521 4290.971429 7856.895547 4407.333156 7553.285064 C 4091.685253 7874.282931 3723.875196 8014.719498 3360.077613 8024.081936 C 2782.281452 8038.794338 2212.510237 7713.783998 1879.47495 7224.26225 Z M 10977.089508 7248.33709 C 10319.04388 8117.706314 9109.951913 8218.018148 8450.568793 7596.084779 C 8573.617976 7941.157487 8684.629738 8259.480372 8874.553476 8597.865624 C 9156.764102 9099.424792 9715.835387 9246.548814 10197.332188 9123.499632 C 10677.491498 8999.112958 11084.088797 8605.890571 11065.363921 8013.382007 C 11064.02643 7949.182434 11026.576679 7638.884495 10977.089508 7248.33709 Z M 8124.220961 3789.585069 L 4751.068372 3804.297471 C 5156.328179 4111.920427 5417.138947 4593.417228 5417.138947 5135.10113 C 5417.138947 6060.644981 4653.431521 6813.652478 3711.837776 6813.652478 C 2949.467841 6813.652478 2304.797124 6321.455748 2085.448582 5643.347753 L 2084.11109 5651.3727 L 1932.974595 6808.302513 C 1938.324559 6816.32746 1942.337032 6824.352407 1946.349506 6832.377353 C 2188.435397 7388.773657 2764.894068 7788.6835 3353.390158 7773.971098 C 3743.937563 7764.60866 4135.822459 7567.997466 4440.770433 7119.937943 C 4452.807853 7102.550558 4467.520256 7089.175647 4484.90764 7079.813209 L 4486.245131 7078.475718 C 4545.09474 7043.700949 4622.669225 7062.425825 4657.443994 7122.612925 C 4856.73017 7455.648213 5215.177788 7625.509584 5541.52562 7531.885206 C 5762.211654 7469.023124 5961.49783 7285.786841 6089.896977 6964.788974 C 6108.621853 6917.976785 6152.759059 6887.214489 6203.583722 6885.876998 L 6604.831056 6880.527033 C 6651.643245 6879.189542 6695.780452 6904.601874 6717.18031 6946.064098 C 6889.716663 7269.736948 7141.164993 7474.373088 7410.000707 7505.135384 C 7673.486456 7534.560188 7942.32217 7392.78613 8153.645766 7054.400878 C 8177.720606 7015.613636 8221.857813 6994.213778 8267.332511 6996.88876 C 8312.807209 6999.563743 8352.931942 7026.313565 8372.994309 7067.775789 C 8829.078779 8037.456847 10332.418791 7970.582291 10927.602337 6864.47714 C 10874.102692 6461.892315 10815.253083 6032.557667 10767.103403 5710.222309 C 10523.68002 6342.855606 9901.746652 6793.590111 9171.476504 6793.590111 C 8229.88276 6793.590111 7466.175333 6040.582614 7466.175333 5115.038763 C 7466.175333 4577.367335 7724.311118 4097.208025 8124.220961 3789.585069 Z M 5351.601882 6215.79395 C 5003.854192 6215.79395 4722.981058 6495.329593 4722.981058 6839.064809 C 4722.981058 7184.137516 5003.854192 7463.673159 5351.601882 7463.673159 C 5698.012081 7463.673159 5980.222706 7184.137516 5980.222706 6839.064809 C 5980.222706 6495.329593 5698.012081 6215.79395 5351.601882 6215.79395 Z M 7475.537771 6151.594376 C 7127.790082 6151.594376 6846.916948 6432.46751 6846.916948 6776.202727 C 6846.916948 7119.937943 7127.790082 7399.473586 7475.537771 7399.473586 C 7823.285461 7399.473586 8104.158595 7119.937943 8104.158595 6776.202727 C 8104.158595 6432.46751 7823.285461 6151.594376 7475.537771 6151.594376 Z M 5351.601882 6465.904788 C 5560.250496 6465.904788 5730.111867 6633.091177 5730.111867 6839.064809 C 5730.111867 7046.375932 5560.250496 7213.562321 5351.601882 7213.562321 C 5142.953268 7213.562321 4973.091897 7046.375932 4973.091897 6839.064809 C 4973.091897 6633.091177 5142.953268 6465.904788 5351.601882 6465.904788 Z M 7475.537771 6401.705215 C 7684.186385 6401.705215 7854.047756 6568.891604 7854.047756 6776.202727 C 7854.047756 6982.176358 7684.186385 7149.362747 7475.537771 7149.362747 C 7266.889157 7149.362747 7097.027786 6982.176358 7097.027786 6776.202727 C 7097.027786 6568.891604 7266.889157 6401.705215 7475.537771 6401.705215 Z M 3711.837776 3706.66062 C 4514.332445 3706.66062 5167.028108 4345.981372 5167.028108 5135.10113 C 5167.028108 5924.220887 4514.332445 6563.541639 3711.837776 6563.541639 C 2908.005617 6563.541639 2255.309953 5924.220887 2255.309953 5135.10113 C 2255.309953 4345.981372 2908.005617 3706.66062 3711.837776 3706.66062 Z M 9171.476504 3686.598253 C 9975.308663 3686.598253 10628.004327 4325.919006 10628.004327 5115.038763 C 10628.004327 5904.15852 9975.308663 6543.479273 9171.476504 6543.479273 C 8368.981835 6543.479273 7716.286172 5904.15852 7716.286172 5115.038763 C 7716.286172 4325.919006 8368.981835 3686.598253 9171.476504 3686.598253 Z M 9178.163959 5329.037341 C 8899.965808 5329.037341 8676.604792 5551.060866 8676.604792 5821.234071 C 8676.604792 6092.744767 8899.965808 6314.768292 9178.163959 6314.768292 C 9455.02462 6314.768292 9678.385636 6092.744767 9678.385636 5821.234071 C 9678.385636 5551.060866 9455.02462 5329.037341 9178.163959 5329.037341 Z M 3261.103271 4676.341678 L 2879.918303 4676.341678 C 2620.445027 4664.304258 2471.983514 4882.315309 2467.97104 5116.376254 C 2462.621076 5349.099708 2599.045169 5577.810688 2857.180954 5588.510617 C 2858.518446 5588.510617 2859.855937 5588.510617 2861.193428 5588.510617 L 3266.453235 5592.523091 L 3262.440762 5991.095443 C 3262.440762 5993.770425 3262.440762 5996.445407 3262.440762 5999.120389 C 3266.453235 6090.069785 3311.927933 6163.631796 3385.489944 6217.131441 C 3468.414394 6275.98105 3591.463576 6308.080837 3715.85025 6306.743346 C 3840.236923 6304.068363 3961.948615 6267.956103 4040.86059 6206.431512 C 4113.08511 6150.256885 4154.547335 6074.019892 4154.547335 5983.070496 L 4154.547335 5587.173126 L 4613.306787 5591.1856 C 4614.644278 5591.1856 4615.981769 5591.1856 4617.31926 5591.1856 C 4697.568727 5588.510617 4771.130739 5545.710902 4827.305365 5470.811399 C 4883.479992 5391.899424 4922.267234 5271.525223 4928.95469 5148.476041 C 4936.979637 5021.414385 4911.567306 4895.69022 4854.055188 4808.753298 C 4803.230525 4732.516304 4731.006005 4683.029133 4636.044136 4672.329204 C 4632.031663 4670.991713 4628.019189 4670.991713 4624.006716 4670.991713 L 4155.884826 4665.641749 L 4157.222317 4304.519148 C 4157.222317 4303.181657 4157.222317 4300.506674 4157.222317 4297.831692 C 4151.872353 4206.882297 4109.072637 4130.645303 4040.86059 4073.133185 C 3959.273632 4006.258629 3836.22445 3966.133896 3711.837776 3963.458914 C 3483.126796 3959.44644 3271.8032 4083.833114 3261.103271 4292.481728 C 3261.103271 4295.15671 3261.103271 4296.494201 3261.103271 4299.169183 Z M 9178.163959 5579.14818 C 9315.925544 5579.14818 9428.274798 5687.48496 9428.274798 5821.234071 C 9428.274798 5956.320674 9315.925544 6064.657454 9178.163959 6064.657454 C 9040.402375 6064.657454 8926.71563 5956.320674 8926.71563 5821.234071 C 8926.71563 5687.48496 9040.402375 5579.14818 9178.163959 5579.14818 Z M 3512.5516 5988.42046 L 3516.564074 5563.098286 C 3516.564074 5559.085813 3521.914038 5557.748322 3525.926511 5555.073339 C 3532.613967 5549.723375 3540.638914 5544.373411 3548.66386 5540.360937 C 3592.801067 5517.623588 3650.313185 5505.586168 3709.162794 5504.248677 C 3765.337421 5502.911186 3822.849539 5510.936133 3865.649254 5533.673482 C 3884.37413 5544.373411 3901.761514 5556.410831 3904.436497 5576.473197 C 3904.436497 5576.473197 3904.436497 5983.070496 3904.436497 5983.070496 C 3904.436497 6001.795372 3887.049112 6011.157809 3869.661728 6020.520247 C 3826.862012 6044.595087 3769.349894 6055.295016 3711.837776 6056.632507 C 3652.988167 6057.969998 3594.138558 6048.607561 3550.001351 6025.870212 C 3532.613967 6016.507774 3513.889091 6007.145336 3512.5516 5988.42046 Z M 9977.983646 4605.454648 C 9699.785494 4605.454648 9476.424478 4827.478173 9476.424478 5098.98887 C 9476.424478 5369.162075 9699.785494 5591.1856 9977.983646 5591.1856 C 10254.844306 5591.1856 10478.205322 5369.162075 10478.205322 5098.98887 C 10478.205322 4827.478173 10254.844306 4605.454648 9977.983646 4605.454648 Z M 8358.281906 4604.117157 C 8081.421246 4604.117157 7858.06023 4824.803191 7858.06023 5096.313887 C 7858.06023 5367.824583 8081.421246 5588.510617 8358.281906 5588.510617 C 8635.142567 5588.510617 8859.841074 5367.824583 8859.841074 5096.313887 C 8859.841074 4824.803191 8635.142567 4604.117157 8358.281906 4604.117157 Z M 3321.290371 5343.749743 L 2866.543392 5338.399779 C 2755.53163 5333.049815 2715.406896 5220.700561 2716.744387 5121.726219 C 2719.41937 5025.426858 2762.219085 4919.76506 2870.555866 4925.115025 C 2871.893357 4925.115025 2874.568339 4925.115025 2877.243321 4925.115025 L 3327.977827 4926.452516 C 3348.040193 4929.127498 3360.077613 4945.177391 3368.10256 4963.902267 C 3389.502418 5009.376965 3394.852382 5069.564065 3392.1774 5129.751165 C 3388.164927 5192.613248 3374.790016 5255.47533 3349.377684 5303.62501 C 3342.690229 5318.337412 3326.640335 5337.062288 3321.290371 5343.749743 Z M 9977.983646 4855.565487 C 10115.74523 4855.565487 10228.094484 4963.902267 10228.094484 5098.98887 C 10228.094484 5232.737981 10115.74523 5341.074761 9977.983646 5341.074761 C 9840.222061 5341.074761 9726.535316 5232.737981 9726.535316 5098.98887 C 9726.535316 4963.902267 9840.222061 4855.565487 9977.983646 4855.565487 Z M 4607.956823 5341.074761 L 4059.585466 5337.062288 C 4019.460733 5290.250099 4003.410839 5208.663141 4003.410839 5128.413674 C 4003.410839 5046.826716 4024.810697 4959.889794 4089.01027 4914.415096 C 4089.01027 4914.415096 4543.757249 4919.76506 4611.969296 4921.102551 C 4633.369154 4926.452516 4645.406574 4945.177391 4656.106503 4966.577249 C 4677.506361 5013.389438 4684.193816 5073.576538 4680.181343 5133.763639 C 4676.168869 5195.28823 4661.456467 5256.812821 4637.381627 5303.62501 C 4632.031663 5312.987448 4625.344207 5322.349886 4618.656752 5330.374832 C 4615.981769 5334.387306 4609.294314 5338.399779 4607.956823 5341.074761 Z M 8358.281906 4854.227996 C 8496.043491 4854.227996 8609.730236 4961.227285 8609.730236 5096.313887 C 8609.730236 5231.40049 8496.043491 5338.399779 8358.281906 5338.399779 C 8220.520322 5338.399779 8108.171068 5231.40049 8108.171068 5096.313887 C 8108.171068 4961.227285 8220.520322 4854.227996 8358.281906 4854.227996 Z M 6770.679954 4616.154577 C 6765.32999 4616.154577 6761.317516 4617.492069 6755.967552 4618.82956 C 6512.544169 4683.029133 6448.344596 4910.402622 6507.194205 5080.263994 C 6548.656429 5201.975685 6652.980736 5294.262572 6797.429776 5295.600063 C 6858.954368 5298.275046 6921.81645 5299.612537 6986.016023 5296.937554 C 6991.365988 5296.937554 6996.715952 5296.937554 7002.065917 5295.600063 C 7145.177466 5274.200206 7238.801844 5171.21339 7270.901631 5048.164207 C 7316.376329 4868.940398 7232.114388 4654.94182 6999.390935 4612.142104 C 6996.715952 4612.142104 6992.703479 4612.142104 6988.691006 4610.804613 C 6912.454012 4604.117157 6838.892001 4605.454648 6770.679954 4616.154577 Z M 5830.423701 4613.479595 C 5826.411228 4613.479595 5821.061263 4614.817086 5817.04879 4616.154577 C 5573.625407 4680.354151 5508.088342 4907.72764 5566.937951 5077.589012 C 5609.737667 5199.300703 5712.724483 5291.58759 5857.173523 5292.925081 C 5918.698114 5295.600063 5981.560197 5295.600063 6047.097261 5294.262572 C 6052.447226 5294.262572 6057.79719 5294.262572 6063.147155 5292.925081 C 6206.258704 5270.187732 6298.545591 5167.200916 6330.645378 5045.489225 C 6377.457567 4866.265416 6291.858135 4650.929346 6060.472173 4609.467122 C 6056.459699 4609.467122 6053.784717 4608.129631 6049.772244 4608.129631 C 5972.197759 4601.442175 5899.973239 4602.779666 5830.423701 4613.479595 Z M 6814.817161 4862.252942 C 6860.291859 4855.565487 6909.77903 4855.565487 6960.603692 4859.57796 C 7022.128284 4872.952871 7040.853159 4935.814954 7028.815739 4985.302125 C 7020.790792 5013.389438 7002.065917 5040.139261 6969.96613 5048.164207 C 6913.791503 5049.501698 6858.954368 5048.164207 6805.454723 5045.489225 C 6804.117232 5045.489225 6801.44225 5045.489225 6800.104759 5045.489225 C 6770.679954 5045.489225 6751.955078 5024.089367 6742.592641 4998.677036 C 6725.205256 4949.189865 6746.605114 4883.6528 6814.817161 4862.252942 Z M 5875.898399 4859.57796 C 5921.373097 4852.890505 5969.522777 4851.553013 6020.347439 4856.902978 C 6083.209521 4870.277889 6101.934397 4931.80248 6088.559486 4981.289652 C 6081.87203 5010.714456 6063.147155 5037.464278 6031.047368 5044.151734 C 5974.872741 5045.489225 5920.035606 5045.489225 5866.535961 5042.814243 C 5863.860979 5042.814243 5862.523488 5042.814243 5859.848505 5042.814243 C 5830.423701 5042.814243 5811.698825 5020.076894 5803.673879 4996.002054 C 5786.286494 4945.177391 5806.348861 4880.977818 5875.898399 4859.57796 Z M 9180.838942 3899.25934 C 8902.64079 3899.25934 8679.279774 4119.945374 8679.279774 4391.45607 C 8679.279774 4662.966766 8902.64079 4883.6528 9180.838942 4883.6528 C 9457.699602 4883.6528 9681.060618 4662.966766 9681.060618 4391.45607 C 9681.060618 4119.945374 9457.699602 3899.25934 9180.838942 3899.25934 Z M 3509.876618 4731.178813 L 3511.214109 4303.181657 C 3513.889091 4276.431834 3531.276476 4259.04445 3554.013825 4247.00703 C 3595.476049 4222.93219 3651.650676 4213.569752 3706.487812 4213.569752 C 3762.662439 4214.907243 3820.174557 4226.944663 3862.974272 4252.356994 C 3884.37413 4267.069397 3904.436497 4283.11929 3907.111479 4308.531621 C 3907.111479 4308.531621 3907.111479 4669.654222 3905.773988 4727.16634 C 3903.099006 4745.891215 3884.37413 4755.253653 3865.649254 4764.616091 C 3820.174557 4786.015949 3759.987456 4794.040896 3701.137847 4791.365913 C 3642.288238 4788.690931 3583.438629 4776.653511 3539.301423 4753.916162 C 3528.601494 4747.228707 3515.226583 4735.191287 3509.876618 4731.178813 Z M 9180.838942 4149.370179 C 9318.600526 4149.370179 9430.94978 4256.369468 9430.94978 4391.45607 C 9430.94978 4526.542673 9318.600526 4633.541962 9180.838942 4633.541962 C 9043.077357 4633.541962 8929.390612 4526.542673 8929.390612 4391.45607 C 8929.390612 4256.369468 9043.077357 4149.370179 9180.838942 4149.370179 Z M 4636.044136 3555.524124 C 4632.031663 3495.337024 4629.356681 3432.474941 4599.931876 3372.287841 C 4570.507071 3309.425759 4529.044847 3246.563677 4423.383049 3245.226186 C 4407.333156 3245.226186 3237.028431 3243.888694 3237.028431 3243.888694 C 3142.066562 3242.551203 3081.879462 3262.61357 3045.767201 3300.063321 C 3013.667415 3334.83809 3002.967486 3377.637806 2996.28003 3415.087557 L 2984.24261 3615.711224 C 3204.928644 3514.061899 3451.027009 3456.549782 3711.837776 3456.549782 C 3916.473917 3456.549782 4111.747619 3491.32455 4293.646411 3556.861615 L 4294.983902 3556.861615 Z M 9887.03425 3590.298893 C 9883.021776 3535.461757 9876.334321 3480.624622 9865.634392 3432.474941 C 9853.596972 3378.975297 9841.559552 3332.163108 9804.109801 3300.063321 C 9763.985067 3265.288552 9699.785494 3251.913641 9599.47366 3251.913641 C 9571.386347 3251.913641 8417.131515 3257.263606 8417.131515 3257.263606 C 8310.132226 3257.263606 8268.670002 3313.438232 8239.245197 3374.962824 C 8213.832866 3428.462468 8211.157884 3484.637095 8208.482902 3539.474231 L 8585.655396 3538.136739 C 8768.891678 3472.599675 8965.502872 3436.487415 9171.476504 3436.487415 C 9426.937307 3436.487415 9669.023198 3491.32455 9887.03425 3590.298893 Z M 9887.03425 3590.298893 " stroke="#000000" stroke-width="1" stroke-opacity="1" stroke-miterlimit="2"/></g></svg>