<svg xmlns="http://www.w3.org/2000/svg" xmlns:xlink="http://www.w3.org/1999/xlink" width="40" zoomAndPan="magnify" viewBox="0 0 30 30.000001" height="40" preserveAspectRatio="xMidYMid meet" version="1.0"><defs><clipPath id="3b1e249aa0"><path d="M 0.484375 4.71875 L 29.515625 4.71875 L 29.515625 24.316406 L 0.484375 24.316406 Z M 0.484375 4.71875 " clip-rule="nonzero"/></clipPath></defs><g clip-path="url(#3b1e249aa0)"><path fill="#ffffff" d="M 0.484375 22.589844 C 0.484375 22.53125 0.507812 22.476562 0.542969 22.429688 L 4.09375 18.15625 C 4.128906 18.113281 4.179688 18.082031 4.230469 18.070312 C 4.089844 17.875 4.007812 17.632812 4.007812 17.375 L 4.007812 5.914062 C 4.007812 5.253906 4.539062 4.71875 5.199219 4.71875 L 24.808594 4.71875 C 25.464844 4.71875 26 5.253906 26 5.914062 L 26 17.375 C 26 17.632812 25.917969 17.875 25.777344 18.070312 C 25.828125 18.082031 25.875 18.113281 25.910156 18.15625 L 29.460938 22.429688 C 29.5 22.476562 29.519531 22.53125 29.519531 22.589844 L 29.519531 23.25 C 29.519531 23.832031 29.042969 24.308594 28.457031 24.308594 L 1.546875 24.308594 C 0.960938 24.308594 0.484375 23.832031 0.484375 23.25 Z M 9.953125 22.339844 L 20.050781 22.339844 L 19.453125 21.511719 L 10.554688 21.511719 Z M 5.199219 18.566406 L 4.40625 18.566406 L 1.273438 22.339844 L 9.332031 22.339844 L 10.21875 21.109375 C 10.265625 21.046875 10.34375 21.007812 10.425781 21.007812 L 19.582031 21.007812 C 19.664062 21.007812 19.738281 21.046875 19.785156 21.109375 L 20.671875 22.339844 L 28.730469 22.339844 L 25.597656 18.566406 Z M 24.808594 18.0625 C 25.1875 18.0625 25.496094 17.753906 25.496094 17.375 L 25.496094 5.914062 C 25.496094 5.53125 25.1875 5.222656 24.808594 5.222656 L 5.199219 5.222656 C 4.820312 5.222656 4.511719 5.53125 4.511719 5.914062 L 4.511719 17.375 C 4.511719 17.753906 4.820312 18.0625 5.199219 18.0625 Z M 25.03125 6.710938 L 25.03125 16.578125 C 25.03125 17.160156 24.554688 17.636719 23.96875 17.636719 L 6.035156 17.636719 C 5.449219 17.636719 4.972656 17.160156 4.972656 16.578125 L 4.972656 6.710938 C 4.972656 6.125 5.449219 5.648438 6.035156 5.648438 L 23.96875 5.648438 C 24.554688 5.648438 25.03125 6.125 25.03125 6.710938 Z M 24.527344 6.710938 C 24.527344 6.402344 24.277344 6.152344 23.96875 6.152344 L 6.035156 6.152344 C 5.726562 6.152344 5.476562 6.402344 5.476562 6.710938 L 5.476562 16.578125 C 5.476562 16.882812 5.726562 17.132812 6.035156 17.132812 L 23.96875 17.132812 C 24.277344 17.132812 24.527344 16.882812 24.527344 16.578125 Z M 29.015625 22.84375 L 0.988281 22.84375 L 0.988281 23.25 C 0.988281 23.554688 1.238281 23.804688 1.546875 23.804688 L 28.457031 23.804688 C 28.765625 23.804688 29.015625 23.554688 29.015625 23.25 Z M 29.015625 22.84375 " fill-opacity="1" fill-rule="evenodd"/></g></svg>