<svg xmlns="http://www.w3.org/2000/svg" xmlns:xlink="http://www.w3.org/1999/xlink" width="40" zoomAndPan="magnify" viewBox="0 0 30 30.000001" height="40" preserveAspectRatio="xMidYMid meet" version="1.0"><defs><clipPath id="7283b96215"><path d="M 0.484375 0.636719 L 29.515625 0.636719 L 29.515625 28.214844 L 0.484375 28.214844 Z M 0.484375 0.636719 " clip-rule="nonzero"/></clipPath></defs><g clip-path="url(#7283b96215)"><path fill="#ffffff" d="M 29.34375 26.007812 L 26.976562 21.90625 C 27.101562 21.785156 27.195312 21.632812 27.238281 21.457031 C 27.304688 21.207031 27.273438 20.945312 27.144531 20.722656 L 26.863281 20.234375 C 26.734375 20.007812 26.523438 19.847656 26.273438 19.78125 C 26.03125 19.71875 25.78125 19.75 25.566406 19.863281 L 25.566406 8.589844 C 25.566406 7.757812 24.949219 7.082031 24.1875 7.082031 L 10.640625 7.082031 L 11.195312 6.898438 C 11.359375 6.84375 11.46875 6.691406 11.46875 6.519531 L 11.46875 5.148438 C 11.46875 4.980469 11.359375 4.828125 11.195312 4.773438 L 10.335938 4.488281 C 10.269531 4.292969 10.191406 4.101562 10.097656 3.917969 L 10.507812 3.109375 C 10.582031 2.957031 10.554688 2.769531 10.433594 2.648438 L 9.464844 1.679688 C 9.34375 1.558594 9.15625 1.53125 9.003906 1.605469 L 8.195312 2.015625 C 8.011719 1.921875 7.820312 1.84375 7.621094 1.777344 L 7.339844 0.917969 C 7.285156 0.753906 7.132812 0.644531 6.960938 0.644531 L 5.59375 0.644531 C 5.421875 0.644531 5.269531 0.753906 5.214844 0.917969 L 4.929688 1.777344 C 4.734375 1.84375 4.542969 1.921875 4.359375 2.015625 L 3.550781 1.605469 C 3.398438 1.53125 3.210938 1.558594 3.089844 1.679688 L 2.121094 2.652344 C 2 2.773438 1.972656 2.957031 2.050781 3.109375 L 2.457031 3.917969 C 2.363281 4.101562 2.285156 4.292969 2.21875 4.488281 L 1.359375 4.773438 C 1.195312 4.828125 1.085938 4.976562 1.085938 5.148438 L 1.085938 6.519531 C 1.085938 6.691406 1.195312 6.84375 1.359375 6.898438 L 2.21875 7.183594 C 2.285156 7.378906 2.363281 7.570312 2.457031 7.753906 L 2.046875 8.5625 C 1.972656 8.714844 2 8.898438 2.121094 9.019531 L 3.089844 9.992188 C 3.210938 10.113281 3.394531 10.140625 3.550781 10.0625 L 3.988281 9.84375 L 3.988281 11.652344 L 3.984375 11.652344 C 3.8125 11.652344 3.660156 11.765625 3.609375 11.925781 L 3.410156 12.53125 C 3.289062 12.570312 3.167969 12.621094 3.054688 12.675781 L 2.488281 12.390625 C 2.335938 12.3125 2.148438 12.34375 2.027344 12.464844 L 1.296875 13.195312 C 1.175781 13.316406 1.144531 13.503906 1.222656 13.65625 L 1.507812 14.226562 C 1.453125 14.339844 1.402344 14.457031 1.363281 14.578125 L 0.757812 14.777344 C 0.59375 14.832031 0.484375 14.984375 0.484375 15.15625 L 0.484375 16.191406 C 0.484375 16.363281 0.59375 16.515625 0.757812 16.566406 L 1.363281 16.765625 C 1.402344 16.886719 1.453125 17.003906 1.507812 17.121094 L 1.222656 17.691406 C 1.144531 17.84375 1.175781 18.027344 1.296875 18.148438 L 2.027344 18.878906 C 2.148438 19.003906 2.335938 19.03125 2.488281 18.953125 L 3.054688 18.667969 C 3.167969 18.726562 3.289062 18.773438 3.410156 18.816406 L 3.609375 19.417969 C 3.664062 19.582031 3.8125 19.691406 3.984375 19.691406 L 3.988281 19.691406 L 3.988281 20.890625 L 2.417969 23.558594 C 2.207031 23.914062 2.1875 24.351562 2.363281 24.730469 C 2.550781 25.132812 2.910156 25.371094 3.324219 25.371094 L 18.046875 25.371094 C 18.046875 25.371094 18.046875 25.371094 18.050781 25.371094 L 24.980469 25.371094 L 26.347656 27.738281 C 26.585938 28.148438 27.019531 28.382812 27.464844 28.382812 C 27.683594 28.382812 27.90625 28.328125 28.109375 28.210938 L 28.871094 27.769531 C 29.167969 27.597656 29.382812 27.320312 29.472656 26.988281 C 29.5625 26.652344 29.515625 26.304688 29.34375 26.007812 Z M 25.1875 20.996094 C 25.191406 20.996094 25.195312 20.992188 25.199219 20.992188 C 25.203125 20.988281 25.203125 20.988281 25.207031 20.984375 L 25.351562 20.902344 C 25.359375 20.898438 25.367188 20.894531 25.375 20.890625 L 25.933594 20.566406 C 25.964844 20.550781 25.996094 20.542969 26.019531 20.542969 C 26.039062 20.542969 26.054688 20.546875 26.066406 20.550781 C 26.09375 20.558594 26.144531 20.578125 26.175781 20.632812 L 26.457031 21.121094 C 26.488281 21.175781 26.480469 21.226562 26.472656 21.253906 C 26.464844 21.28125 26.445312 21.328125 26.390625 21.359375 L 23.796875 22.855469 C 23.742188 22.886719 23.691406 22.882812 23.664062 22.875 C 23.640625 22.867188 23.589844 22.847656 23.558594 22.792969 L 23.277344 22.304688 C 23.230469 22.222656 23.257812 22.113281 23.339844 22.066406 L 24.074219 21.640625 C 24.078125 21.640625 24.078125 21.636719 24.082031 21.636719 L 25.191406 20.996094 Z M 21.605469 15.5625 L 24.457031 20.503906 L 24.023438 20.753906 L 21.171875 15.8125 C 21.117188 15.722656 21.03125 15.65625 20.929688 15.628906 C 20.828125 15.601562 20.71875 15.617188 20.628906 15.667969 L 20.605469 15.683594 L 20.054688 14.726562 L 19.859375 13.394531 L 20.164062 13.21875 L 21.222656 14.050781 L 21.773438 15.007812 L 21.753906 15.019531 C 21.660156 15.074219 21.59375 15.160156 21.566406 15.261719 C 21.539062 15.363281 21.554688 15.472656 21.605469 15.5625 Z M 3.449219 9.226562 L 2.886719 8.664062 L 3.257812 7.925781 C 3.316406 7.808594 3.3125 7.667969 3.25 7.550781 C 3.109375 7.304688 3 7.039062 2.921875 6.761719 C 2.886719 6.636719 2.789062 6.535156 2.664062 6.492188 L 1.882812 6.234375 L 1.882812 5.4375 L 2.664062 5.175781 C 2.789062 5.136719 2.886719 5.035156 2.921875 4.90625 C 2.996094 4.632812 3.105469 4.371094 3.25 4.117188 C 3.3125 4 3.316406 3.859375 3.257812 3.742188 L 2.886719 3.007812 L 3.449219 2.445312 L 4.183594 2.816406 C 4.304688 2.875 4.445312 2.871094 4.558594 2.804688 C 4.804688 2.667969 5.070312 2.558594 5.347656 2.480469 C 5.476562 2.445312 5.578125 2.347656 5.621094 2.222656 L 5.878906 1.4375 L 6.675781 1.4375 L 6.933594 2.222656 C 6.976562 2.347656 7.078125 2.445312 7.203125 2.480469 C 7.480469 2.554688 7.746094 2.667969 7.992188 2.804688 C 8.109375 2.871094 8.25 2.875 8.367188 2.816406 L 9.105469 2.445312 L 9.667969 3.007812 L 9.296875 3.746094 C 9.238281 3.863281 9.238281 4.003906 9.304688 4.117188 C 9.445312 4.367188 9.554688 4.628906 9.632812 4.90625 C 9.667969 5.035156 9.765625 5.136719 9.890625 5.175781 L 10.671875 5.4375 L 10.671875 6.234375 L 9.890625 6.492188 C 9.765625 6.535156 9.667969 6.636719 9.632812 6.765625 C 9.554688 7.039062 9.445312 7.304688 9.304688 7.554688 C 9.238281 7.667969 9.238281 7.808594 9.296875 7.925781 L 9.667969 8.664062 L 9.105469 9.226562 L 8.367188 8.855469 C 8.25 8.796875 8.105469 8.796875 7.992188 8.863281 C 7.746094 9.003906 7.480469 9.113281 7.203125 9.191406 C 7.074219 9.226562 6.972656 9.320312 6.933594 9.449219 L 6.671875 10.230469 L 5.878906 10.230469 L 5.617188 9.449219 C 5.578125 9.320312 5.476562 9.226562 5.347656 9.191406 C 5.070312 9.113281 4.804688 9.003906 4.558594 8.863281 C 4.445312 8.796875 4.304688 8.796875 4.183594 8.855469 Z M 3.824219 18.113281 C 3.625 18.058594 3.433594 17.980469 3.253906 17.875 C 3.136719 17.8125 2.996094 17.808594 2.878906 17.867188 L 2.386719 18.117188 L 2.058594 17.789062 L 2.308594 17.296875 C 2.367188 17.179688 2.363281 17.039062 2.300781 16.925781 C 2.195312 16.742188 2.117188 16.546875 2.058594 16.347656 C 2.023438 16.21875 1.929688 16.117188 1.800781 16.078125 L 1.277344 15.902344 L 1.277344 15.441406 L 1.800781 15.269531 C 1.929688 15.226562 2.023438 15.125 2.058594 15 C 2.117188 14.800781 2.195312 14.605469 2.300781 14.421875 C 2.363281 14.308594 2.367188 14.167969 2.308594 14.050781 L 2.058594 13.554688 L 2.386719 13.230469 L 2.878906 13.480469 C 2.996094 13.539062 3.136719 13.535156 3.253906 13.46875 C 3.433594 13.367188 3.625 13.285156 3.824219 13.230469 C 3.953125 13.195312 4.054688 13.101562 4.097656 12.972656 L 4.269531 12.449219 L 4.734375 12.449219 L 4.90625 12.972656 C 4.949219 13.101562 5.050781 13.195312 5.179688 13.230469 C 5.378906 13.285156 5.570312 13.367188 5.75 13.46875 C 5.867188 13.535156 6.007812 13.539062 6.125 13.476562 L 6.621094 13.230469 L 6.945312 13.554688 L 6.695312 14.050781 C 6.636719 14.167969 6.640625 14.308594 6.707031 14.421875 C 6.808594 14.605469 6.890625 14.796875 6.941406 14.996094 C 6.976562 15.125 7.074219 15.226562 7.203125 15.269531 L 7.726562 15.441406 L 7.726562 15.902344 L 7.203125 16.078125 C 7.074219 16.117188 6.976562 16.21875 6.941406 16.347656 C 6.886719 16.550781 6.808594 16.742188 6.707031 16.917969 C 6.640625 17.035156 6.636719 17.175781 6.695312 17.296875 L 6.945312 17.789062 L 6.621094 18.113281 L 6.125 17.867188 C 6.007812 17.808594 5.867188 17.808594 5.75 17.875 C 5.570312 17.980469 5.378906 18.058594 5.179688 18.113281 C 5.050781 18.148438 4.949219 18.246094 4.90625 18.371094 L 4.734375 18.894531 L 4.269531 18.894531 L 4.097656 18.371094 C 4.054688 18.246094 3.953125 18.148438 3.824219 18.113281 Z M 5.019531 19.691406 C 5.191406 19.691406 5.34375 19.582031 5.398438 19.417969 L 5.597656 18.816406 C 5.71875 18.773438 5.835938 18.726562 5.953125 18.667969 L 6.519531 18.953125 C 6.671875 19.03125 6.859375 19 6.980469 18.878906 L 7.710938 18.148438 C 7.832031 18.027344 7.859375 17.84375 7.785156 17.691406 L 7.5 17.121094 C 7.554688 17.007812 7.601562 16.886719 7.644531 16.765625 L 8.25 16.566406 C 8.410156 16.515625 8.523438 16.363281 8.523438 16.191406 L 8.523438 15.15625 C 8.523438 14.984375 8.410156 14.832031 8.25 14.777344 L 7.644531 14.578125 C 7.601562 14.457031 7.554688 14.339844 7.496094 14.222656 L 7.785156 13.65625 C 7.859375 13.503906 7.832031 13.316406 7.710938 13.195312 L 6.980469 12.464844 C 6.859375 12.34375 6.671875 12.3125 6.519531 12.390625 L 5.953125 12.675781 C 5.835938 12.621094 5.71875 12.570312 5.597656 12.53125 L 5.398438 11.925781 C 5.34375 11.765625 5.191406 11.65625 5.019531 11.65625 L 4.785156 11.65625 L 4.785156 9.84375 C 4.832031 9.859375 4.882812 9.878906 4.929688 9.894531 L 5.214844 10.753906 C 5.269531 10.917969 5.421875 11.027344 5.59375 11.027344 L 6.960938 11.027344 C 7.132812 11.027344 7.285156 10.917969 7.335938 10.753906 L 7.621094 9.894531 C 7.820312 9.828125 8.011719 9.75 8.195312 9.65625 L 9.003906 10.066406 C 9.15625 10.140625 9.339844 10.113281 9.464844 9.992188 L 10.433594 9.023438 C 10.554688 8.902344 10.582031 8.714844 10.503906 8.5625 L 10.160156 7.875 L 24.1875 7.875 C 24.503906 7.875 24.769531 8.203125 24.769531 8.59375 L 24.769531 19.457031 L 22.492188 15.507812 L 22.511719 15.496094 C 22.605469 15.445312 22.671875 15.359375 22.699219 15.257812 C 22.726562 15.152344 22.710938 15.046875 22.660156 14.953125 L 21.871094 13.585938 C 21.84375 13.542969 21.8125 13.503906 21.773438 13.472656 L 20.445312 12.429688 C 20.316406 12.328125 20.140625 12.316406 20 12.394531 L 19.230469 12.839844 C 19.089844 12.921875 19.011719 13.078125 19.035156 13.242188 L 19.277344 14.914062 C 19.285156 14.964844 19.300781 15.011719 19.328125 15.058594 L 20.117188 16.421875 C 20.167969 16.515625 20.253906 16.582031 20.355469 16.609375 C 20.457031 16.636719 20.566406 16.621094 20.660156 16.570312 L 20.679688 16.554688 L 23.015625 20.601562 L 4.785156 20.601562 L 4.785156 19.691406 Z M 12.121094 24.578125 L 12.324219 24.128906 C 12.347656 24.078125 12.410156 23.960938 12.488281 23.960938 L 17.066406 23.960938 C 17.148438 23.960938 17.210938 24.085938 17.230469 24.128906 L 17.433594 24.578125 Z M 18.304688 24.578125 L 17.953125 23.800781 C 17.773438 23.402344 17.441406 23.164062 17.066406 23.164062 L 12.488281 23.164062 C 12.109375 23.164062 11.785156 23.398438 11.601562 23.800781 L 11.246094 24.578125 L 3.324219 24.578125 C 3.195312 24.578125 3.121094 24.476562 3.082031 24.394531 C 3.015625 24.253906 3.023438 24.097656 3.101562 23.964844 L 4.613281 21.394531 L 22.914062 21.394531 C 22.472656 21.671875 22.328125 22.25 22.585938 22.703125 L 22.871094 23.191406 C 23 23.414062 23.210938 23.574219 23.460938 23.640625 C 23.542969 23.664062 23.628906 23.675781 23.710938 23.675781 C 23.800781 23.675781 23.890625 23.664062 23.976562 23.636719 L 24.519531 24.578125 Z M 28.703125 26.78125 C 28.671875 26.910156 28.589844 27.015625 28.472656 27.082031 L 27.710938 27.523438 C 27.472656 27.660156 27.171875 27.578125 27.035156 27.339844 L 24.679688 23.265625 L 26.300781 22.328125 L 28.65625 26.40625 C 28.71875 26.519531 28.738281 26.652344 28.703125 26.78125 Z M 13.167969 13.855469 C 14.082031 13.855469 14.828125 13.113281 14.828125 12.195312 C 14.828125 11.28125 14.082031 10.535156 13.167969 10.535156 C 12.253906 10.535156 11.507812 11.28125 11.507812 12.195312 C 11.507812 13.113281 12.253906 13.855469 13.167969 13.855469 Z M 13.167969 11.332031 C 13.644531 11.332031 14.035156 11.71875 14.035156 12.195312 C 14.035156 12.675781 13.644531 13.0625 13.167969 13.0625 C 12.691406 13.0625 12.300781 12.675781 12.300781 12.195312 C 12.300781 11.71875 12.691406 11.332031 13.167969 11.332031 Z M 6.539062 15.671875 C 6.539062 14.550781 5.625 13.636719 4.503906 13.636719 C 3.378906 13.636719 2.46875 14.550781 2.46875 15.671875 C 2.46875 16.796875 3.378906 17.710938 4.503906 17.710938 C 5.625 17.710938 6.539062 16.796875 6.539062 15.671875 Z M 3.261719 15.671875 C 3.261719 14.988281 3.816406 14.429688 4.5 14.429688 C 5.1875 14.429688 5.746094 14.988281 5.746094 15.671875 C 5.746094 16.359375 5.1875 16.914062 4.5 16.914062 C 3.816406 16.914062 3.261719 16.359375 3.261719 15.671875 Z M 6.277344 8.761719 C 7.886719 8.761719 9.199219 7.449219 9.199219 5.835938 C 9.199219 4.226562 7.886719 2.910156 6.277344 2.910156 C 4.664062 2.910156 3.351562 4.222656 3.351562 5.835938 C 3.351562 7.449219 4.664062 8.761719 6.277344 8.761719 Z M 6.277344 3.707031 C 7.449219 3.707031 8.40625 4.660156 8.40625 5.835938 C 8.40625 7.011719 7.449219 7.964844 6.277344 7.964844 C 5.101562 7.964844 4.148438 7.011719 4.148438 5.835938 C 4.148438 4.660156 5.101562 3.707031 6.277344 3.707031 Z M 9.894531 13.023438 L 10.394531 13.1875 C 10.429688 13.28125 10.464844 13.367188 10.507812 13.457031 L 10.269531 13.925781 C 10.195312 14.078125 10.222656 14.265625 10.34375 14.386719 L 10.980469 15.023438 C 11.101562 15.144531 11.285156 15.171875 11.4375 15.09375 L 11.910156 14.859375 C 11.996094 14.898438 12.085938 14.9375 12.175781 14.96875 L 12.34375 15.46875 C 12.394531 15.632812 12.546875 15.742188 12.71875 15.742188 L 13.617188 15.742188 C 13.789062 15.742188 13.941406 15.632812 13.996094 15.46875 L 14.160156 14.96875 C 14.25 14.9375 14.339844 14.898438 14.425781 14.859375 L 14.894531 15.09375 C 15.050781 15.171875 15.234375 15.144531 15.355469 15.023438 L 15.992188 14.386719 C 16.113281 14.265625 16.144531 14.078125 16.066406 13.925781 L 15.828125 13.457031 C 15.871094 13.367188 15.90625 13.28125 15.941406 13.1875 L 16.441406 13.023438 C 16.605469 12.972656 16.714844 12.820312 16.714844 12.648438 L 16.714844 11.746094 C 16.714844 11.574219 16.601562 11.421875 16.441406 11.371094 L 15.941406 11.203125 C 15.90625 11.113281 15.871094 11.023438 15.828125 10.9375 L 16.066406 10.46875 C 16.144531 10.316406 16.113281 10.128906 15.992188 10.007812 L 15.355469 9.371094 C 15.234375 9.25 15.050781 9.222656 14.898438 9.296875 L 14.425781 9.535156 C 14.339844 9.496094 14.25 9.457031 14.160156 9.425781 L 13.996094 8.925781 C 13.941406 8.761719 13.789062 8.652344 13.617188 8.652344 L 12.71875 8.652344 C 12.546875 8.652344 12.394531 8.761719 12.34375 8.925781 L 12.175781 9.425781 C 12.085938 9.457031 11.996094 9.496094 11.910156 9.535156 L 11.4375 9.296875 C 11.285156 9.222656 11.101562 9.25 10.980469 9.371094 L 10.34375 10.007812 C 10.222656 10.128906 10.195312 10.316406 10.269531 10.46875 L 10.507812 10.9375 C 10.464844 11.027344 10.429688 11.117188 10.398438 11.207031 L 9.898438 11.371094 C 9.734375 11.425781 9.625 11.578125 9.625 11.746094 L 9.625 12.648438 C 9.625 12.820312 9.734375 12.972656 9.898438 13.023438 Z M 10.417969 12.035156 L 10.835938 11.894531 C 10.964844 11.855469 11.058594 11.75 11.09375 11.625 C 11.140625 11.453125 11.210938 11.289062 11.296875 11.136719 C 11.363281 11.019531 11.367188 10.878906 11.304688 10.761719 L 11.105469 10.367188 L 11.335938 10.136719 L 11.734375 10.335938 C 11.851562 10.394531 11.992188 10.390625 12.109375 10.324219 C 12.257812 10.238281 12.421875 10.171875 12.59375 10.125 C 12.722656 10.089844 12.824219 9.992188 12.863281 9.867188 L 13.003906 9.445312 L 13.328125 9.445312 L 13.46875 9.867188 C 13.511719 9.992188 13.613281 10.089844 13.742188 10.125 C 13.910156 10.171875 14.074219 10.238281 14.226562 10.328125 C 14.34375 10.390625 14.484375 10.394531 14.601562 10.335938 L 14.996094 10.136719 L 15.226562 10.367188 L 15.027344 10.761719 C 14.96875 10.882812 14.972656 11.023438 15.039062 11.136719 C 15.125 11.289062 15.191406 11.453125 15.238281 11.625 C 15.273438 11.753906 15.371094 11.855469 15.496094 11.894531 L 15.917969 12.035156 L 15.917969 12.359375 L 15.496094 12.5 C 15.371094 12.539062 15.273438 12.644531 15.238281 12.769531 C 15.191406 12.945312 15.125 13.105469 15.039062 13.257812 C 14.972656 13.371094 14.96875 13.511719 15.027344 13.632812 L 15.226562 14.027344 L 14.996094 14.257812 L 14.601562 14.058594 C 14.484375 14 14.34375 14.003906 14.226562 14.066406 C 14.070312 14.15625 13.90625 14.226562 13.742188 14.269531 C 13.613281 14.304688 13.511719 14.402344 13.46875 14.527344 L 13.332031 14.949219 L 13.003906 14.949219 L 12.867188 14.527344 C 12.824219 14.402344 12.722656 14.304688 12.59375 14.269531 C 12.425781 14.222656 12.261719 14.15625 12.109375 14.070312 C 11.992188 14.003906 11.851562 14 11.734375 14.058594 L 11.335938 14.257812 L 11.109375 14.027344 L 11.308594 13.632812 C 11.367188 13.511719 11.363281 13.371094 11.296875 13.257812 C 11.210938 13.101562 11.144531 12.941406 11.097656 12.769531 C 11.0625 12.644531 10.964844 12.539062 10.839844 12.5 L 10.417969 12.359375 Z M 10.417969 12.035156 " fill-opacity="1" fill-rule="nonzero"/></g></svg>